<?xml version="1.0" encoding="UTF-8" standalone="no"?>
<svg
   width="813"
   height="813"
   viewBox="0 0 813 813"
   fill="none"
   version="1.1"
   id="svg36"
   sodipodi:docname="divizend-tworows-white.svg"
   xml:space="preserve"
   inkscape:version="1.4.2 (ebf0e940, 2025-05-08)"
   inkscape:export-filename="divizend-tworows-white.png"
   inkscape:export-xdpi="120.91513"
   inkscape:export-ydpi="120.91513"
   xmlns:inkscape="http://www.inkscape.org/namespaces/inkscape"
   xmlns:sodipodi="http://sodipodi.sourceforge.net/DTD/sodipodi-0.dtd"
   xmlns="http://www.w3.org/2000/svg"
   xmlns:svg="http://www.w3.org/2000/svg"><defs
     id="defs40" /><sodipodi:namedview
     id="namedview38"
     pagecolor="#ffffff"
     bordercolor="#666666"
     borderopacity="1.0"
     inkscape:showpageshadow="2"
     inkscape:pageopacity="0.0"
     inkscape:pagecheckerboard="0"
     inkscape:deskcolor="#d1d1d1"
     showgrid="false"
     inkscape:zoom="0.44266151"
     inkscape:cx="389.68827"
     inkscape:cy="168.30015"
     inkscape:window-width="1440"
     inkscape:window-height="752"
     inkscape:window-x="0"
     inkscape:window-y="31"
     inkscape:window-maximized="1"
     inkscape:current-layer="svg36" /><rect
     width="813"
     height="813"
     fill="#ffffff"
     id="rect2"
     x="0"
     y="0"
     style="fill:#3c9d9b;fill-opacity:1;stroke-width:1"
     ry="54.217499" /><path
     fill-rule="evenodd"
     clip-rule="evenodd"
     d="M 172.481,221.74 H 106.5 v 163.053 h 65.981 c 26.933,0 47.366,-6.652 60.797,-20.415 l 0.01,-0.01 c 13.394,-13.891 19.889,-34.363 19.889,-60.983 0,-26.768 -6.49,-47.249 -19.895,-60.988 -13.429,-13.924 -33.864,-20.657 -60.801,-20.657 z m -4.509,34.414 c 13.956,0 24.058,3.899 30.753,11.321 l 0.016,0.017 c 6.695,7.277 10.291,19.065 10.291,35.893 0,16.492 -3.588,28.224 -10.307,35.673 -6.695,7.422 -16.797,11.321 -30.753,11.321 h -18.276 v -94.225 z"
     fill="#3c9d9b"
     id="path4"
     style="fill:#ffffff;fill-opacity:1" /><path
     d="m 335.045,221.74 h -43.196 v 163.053 h 43.196 z"
     fill="#3c9d9b"
     id="path6"
     style="fill:#ffffff;fill-opacity:1" /><path
     d="m 470.932,384.793 63.812,-163.074 -46.022,0.268 -36.734,110.199 -36.739,-110.446 h -49.515 l 60.871,163.053 z"
     fill="#3c9d9b"
     id="path8"
     style="fill:#ffffff;fill-opacity:1" /><path
     d="M 603.17,221.774 H 559.974 V 384.827 H 603.17 Z"
     fill="#3c9d9b"
     id="path10"
     style="fill:#ffffff;fill-opacity:1" /><path
     fill-rule="evenodd"
     clip-rule="evenodd"
     d="m 625.804,428.227 h -65.981 v 163.054 h 65.981 c 26.933,0 47.366,-6.653 60.796,-20.415 l 0.01,-0.011 c 13.4,-13.891 19.89,-34.363 19.89,-60.983 0,-26.767 -6.49,-47.249 -19.89,-60.988 -13.435,-13.923 -33.869,-20.657 -60.806,-20.657 z m -4.51,34.414 c 13.957,0 24.059,3.899 30.754,11.321 l 0.015,0.017 c 6.696,7.278 10.291,19.066 10.291,35.893 0,16.492 -3.587,28.224 -10.306,35.673 -6.695,7.423 -16.797,11.321 -30.754,11.321 h -18.275 v -94.225 z m -20.648,-2.373 v 98.972 h 20.648 -20.648 z M 562.196,430.6 v 0 h 63.608 z"
     fill="#3c9d9b"
     id="path12"
     style="fill:#ffffff;fill-opacity:1" /><path
     fill-rule="evenodd"
     clip-rule="evenodd"
     d="m 266.468,588.907 c -1.966,0 -3.56,-1.594 -3.56,-3.56 V 433.448 c 0,-1.966 1.594,-3.56 3.56,-3.56 1.967,0 3.56,1.594 3.56,3.56 v 151.899 c 0,1.966 -1.593,3.56 -3.56,3.56 z"
     fill="#3c9d9b"
     id="path14"
     style="fill:#ffffff;fill-opacity:1" /><path
     fill-rule="evenodd"
     clip-rule="evenodd"
     d="m 280.709,588.907 c -1.966,0 -3.56,-1.594 -3.56,-3.56 V 433.448 c 0,-1.966 1.594,-3.56 3.56,-3.56 1.966,0 3.56,1.594 3.56,3.56 v 151.899 c 0,1.966 -1.594,3.56 -3.56,3.56 z"
     fill="#3c9d9b"
     id="path16"
     style="fill:#ffffff;fill-opacity:1" /><path
     fill-rule="evenodd"
     clip-rule="evenodd"
     d="m 395.82,585.347 c 0,1.966 1.594,3.56 3.56,3.56 1.966,0 3.56,-1.594 3.56,-3.56 V 448.612 l 7.12,13.226 v 123.509 c 0,1.966 1.594,3.56 3.56,3.56 1.966,0 3.56,-1.594 3.56,-3.56 V 475.065 l 7.121,13.226 v 97.056 c 0,1.966 1.594,3.56 3.56,3.56 1.966,0 3.56,-1.594 3.56,-3.56 v -83.829 l 46.06,85.559 c 0.933,1.731 3.089,2.37 4.815,1.428 1.726,-0.942 2.368,-3.108 1.435,-4.838 l -81.04,-151.528 c -0.521,-1.318 -1.807,-2.251 -3.311,-2.251 -1.966,0 -3.56,1.594 -3.56,3.56 z"
     fill="#3c9d9b"
     id="path18"
     style="fill:#ffffff;fill-opacity:1" /><path
     fill-rule="evenodd"
     clip-rule="evenodd"
     d="m 501.573,588.464 c -1.726,0.942 -3.882,0.302 -4.816,-1.428 L 413.252,435.23 c -0.933,-1.73 -0.291,-3.897 1.435,-4.839 1.726,-0.941 3.882,-0.302 4.815,1.429 l 83.506,151.805 c 0.933,1.731 0.291,3.897 -1.435,4.839 z"
     fill="#3c9d9b"
     id="path20"
     style="fill:#ffffff;fill-opacity:1" /><path
     fill-rule="evenodd"
     clip-rule="evenodd"
     d="m 493.13,534.758 7.12,13.148 V 433.448 c 0,-1.966 1.594,-3.56 3.56,-3.56 1.966,0 3.56,1.594 3.56,3.56 v 127.605 l 7.12,13.148 V 433.448 c 0,-1.966 1.594,-3.56 3.561,-3.56 1.966,0 3.56,1.594 3.56,3.56 v 151.899 c 0,1.966 -1.594,3.56 -3.56,3.56 -1.155,0 -2.181,-0.549 -2.832,-1.401 -0.148,-0.164 -0.278,-0.348 -0.387,-0.55 L 431.099,435.168 c -0.934,-1.73 -0.291,-3.896 1.435,-4.838 1.726,-0.942 3.882,-0.302 4.815,1.428 l 48.66,89.852 v -88.162 c 0,-1.966 1.594,-3.56 3.561,-3.56 1.966,0 3.56,1.594 3.56,3.56 z"
     fill="#3c9d9b"
     id="path22"
     style="fill:#ffffff;fill-opacity:1" /><path
     fill-rule="evenodd"
     clip-rule="evenodd"
     d="m 294.949,429.888 c -0.263,0 -0.519,0.029 -0.766,0.083 -1.598,0.35 -2.794,1.774 -2.794,3.477 v 14.241 14.24 33.228 14.241 14.24 33.228 14.241 14.24 c 0,1.966 1.594,3.56 3.56,3.56 h 59.336 c 1.966,0 3.56,-1.594 3.56,-3.56 0,-1.966 -1.594,-3.56 -3.56,-3.56 h -55.776 v -7.12 h 55.776 c 1.966,0 3.56,-1.594 3.56,-3.56 0,-1.967 -1.594,-3.561 -3.56,-3.561 h -55.776 v -7.12 h 55.776 c 1.966,0 3.56,-1.594 3.56,-3.56 0,-1.966 -1.594,-3.56 -3.56,-3.56 h -55.776 v -26.108 h 55.776 c 1.966,0 3.56,-1.594 3.56,-3.56 0,-1.966 -1.594,-3.56 -3.56,-3.56 h -55.776 v -7.12 h 55.776 c 1.966,0 3.56,-1.594 3.56,-3.56 0,-1.966 -1.594,-3.56 -3.56,-3.56 h -55.776 v -7.121 h 55.776 c 1.966,0 3.56,-1.594 3.56,-3.56 0,-1.966 -1.594,-3.56 -3.56,-3.56 h -55.776 v -26.108 h 55.776 c 1.966,0 3.56,-1.593 3.56,-3.56 0,-1.966 -1.594,-3.56 -3.56,-3.56 h -55.776 v -7.12 h 55.776 c 1.966,0 3.56,-1.594 3.56,-3.56 0,-1.966 -1.594,-3.56 -3.56,-3.56 h -55.776 v -7.121 h 55.776 c 1.966,0 3.56,-1.593 3.56,-3.56 0,-1.966 -1.594,-3.56 -3.56,-3.56 z"
     fill="#3c9d9b"
     id="path24"
     style="fill:#ffffff;fill-opacity:1" /><path
     fill-rule="evenodd"
     clip-rule="evenodd"
     d="m 111.01,433.448 c 0,-1.966 1.593,-3.56 3.56,-3.56 h 111.55 c 1.966,0 3.56,1.594 3.56,3.56 0,1.967 -1.594,3.56 -3.56,3.56 H 114.57 c -1.967,0 -3.56,-1.593 -3.56,-3.56 z"
     fill="#3c9d9b"
     id="path26"
     style="fill:#ffffff;fill-opacity:1" /><path
     fill-rule="evenodd"
     clip-rule="evenodd"
     d="m 111.01,447.689 c 0,-1.966 1.593,-3.56 3.56,-3.56 h 111.55 c 1.966,0 3.56,1.594 3.56,3.56 0,1.966 -1.594,3.56 -3.56,3.56 H 114.57 c -1.967,0 -3.56,-1.594 -3.56,-3.56 z"
     fill="#3c9d9b"
     id="path28"
     style="fill:#ffffff;fill-opacity:1" /><path
     fill-rule="evenodd"
     clip-rule="evenodd"
     d="m 111.01,571.107 c 0,-1.967 1.593,-3.561 3.56,-3.561 h 111.55 c 1.966,0 3.56,1.594 3.56,3.561 0,1.966 -1.594,3.56 -3.56,3.56 H 114.57 c -1.967,0 -3.56,-1.594 -3.56,-3.56 z"
     fill="#3c9d9b"
     id="path30"
     style="fill:#ffffff;fill-opacity:1" /><path
     fill-rule="evenodd"
     clip-rule="evenodd"
     d="m 114.57,458.369 c -1.967,0 -3.56,1.594 -3.56,3.56 0,1.966 1.593,3.56 3.56,3.56 h 61.976 l -64.769,89.118 c -0.132,0.181 -0.245,0.37 -0.339,0.564 -0.273,0.504 -0.428,1.081 -0.428,1.695 0,1.966 1.593,3.56 3.56,3.56 h 111.55 c 1.967,0 3.56,-1.594 3.56,-3.56 0,-1.966 -1.593,-3.56 -3.56,-3.56 h -62.179 l 64.941,-89.13 c 0.499,-0.612 0.798,-1.395 0.798,-2.247 0,-1.966 -1.594,-3.56 -3.56,-3.56 z m 105.287,7.12 h -13.014 l -64.375,87.817 h 12.646 z m -21.851,0 h -12.572 l -63.905,87.817 h 11.932 z"
     fill="#3c9d9b"
     id="path32"
     style="fill:#ffffff;fill-opacity:1" /><path
     fill-rule="evenodd"
     clip-rule="evenodd"
     d="m 111.01,585.347 c 0,-1.966 1.593,-3.56 3.56,-3.56 h 111.55 c 1.966,0 3.56,1.594 3.56,3.56 0,1.966 -1.594,3.56 -3.56,3.56 H 114.57 c -1.967,0 -3.56,-1.594 -3.56,-3.56 z"
     fill="#3c9d9b"
     id="path34"
     style="fill:#ffffff;fill-opacity:1" /></svg>
